<?xml version="1.0" standalone="no"?>
<!DOCTYPE svg PUBLIC "-//W3C//DTD SVG 20010904//EN"
 "http://www.w3.org/TR/2001/REC-SVG-20010904/DTD/svg10.dtd">
<svg version="1.0" xmlns="http://www.w3.org/2000/svg"
 width="300.000000pt" height="300.000000pt" viewBox="0 0 300.000000 300.000000"
 preserveAspectRatio="xMidYMid meet">
<metadata>
Created by potrace 1.11, written by Peter Selinger 2001-2013
</metadata>
<g transform="translate(0.000000,300.000000) scale(0.100000,-0.100000)"
fill="#000000" stroke="none">
<path d="M281 2798 c-8 -390 145 -709 491 -1023 30 -27 69 -61 88 -75 18 -14
38 -30 44 -35 21 -21 212 -153 296 -205 146 -91 352 -210 565 -325 100 -54
101 -59 4 -21 -360 142 -753 339 -1021 512 -106 68 -266 186 -312 230 -28 27
-28 27 -21 3 53 -168 213 -366 394 -487 193 -130 484 -239 806 -303 33 -6 65
-12 70 -13 6 -2 35 -8 65 -14 30 -6 70 -13 88 -16 19 -2 37 -8 40 -12 7 -7
-230 2 -308 12 -202 25 -525 96 -692 152 -66 22 -85 25 -75 13 75 -95 200
-176 340 -221 167 -54 407 -59 665 -14 47 8 86 13 89 11 6 -6 -107 -54 -178
-76 -113 -35 -274 -64 -366 -65 -41 0 -24 -13 40 -30 250 -68 483 -50 719 54
89 39 258 144 265 165 1 6 -54 34 -125 64 -119 50 -368 170 -457 221 -106 60
-137 78 -225 134 -89 57 -337 235 -370 267 -9 8 -45 38 -80 68 -103 85 -325
314 -417 430 -88 111 -189 257 -243 351 -44 77 -135 268 -150 313 -6 20 -15
37 -19 37 -4 0 -8 -46 -10 -102z"/>
<path d="M1114 2183 c4 -16 9 -40 11 -54 29 -162 173 -374 371 -549 136 -120
417 -283 644 -374 76 -31 73 -27 -40 44 -422 270 -762 594 -936 892 -41 71
-60 86 -50 41z"/>
<path d="M2210 1493 c0 -2 22 -14 48 -27 56 -28 111 -87 113 -119 4 -68 -31
-130 -101 -182 -27 -20 -50 -38 -50 -39 0 -1 31 5 68 15 85 21 219 22 280 2
24 -9 64 -35 89 -58 24 -23 45 -39 47 -36 8 14 -4 125 -18 174 -36 123 -134
213 -276 253 -25 7 -200 22 -200 17z"/>
<path d="M2252 858 c-30 -5 -52 -12 -49 -14 2 -2 31 -7 63 -10 33 -3 82 -11
109 -17 46 -12 43 -13 -76 -13 -145 1 -205 -15 -265 -70 -22 -19 -30 -31 -19
-26 21 10 142 41 185 48 14 2 34 6 46 9 11 2 52 7 90 10 l69 5 -100 -24 c-125
-29 -184 -50 -258 -89 -64 -34 -139 -110 -156 -158 -11 -31 -11 -31 12 -15
108 77 243 153 332 188 22 9 67 28 100 43 77 34 61 19 -35 -32 -252 -136 -362
-231 -409 -358 -21 -56 -26 -136 -12 -185 7 -24 8 -23 20 15 47 144 194 316
373 435 77 52 207 120 328 172 l35 15 -40 20 c-98 50 -240 71 -343 51z"/>
</g>
</svg>
